<?xml version="1.0" encoding="utf-8"?>
<!-- Generator: Adobe Illustrator 21.1.0, SVG Export Plug-In . SVG Version: 6.00 Build 0)  -->
<svg version="1.1" id="Laag_1" xmlns="http://www.w3.org/2000/svg" xmlns:xlink="http://www.w3.org/1999/xlink" x="0px" y="0px"
	 viewBox="0 0 1920 1080" style="enable-background:new 0 0 1920 1080;" xml:space="preserve">
<style type="text/css">
	.st0{fill:none;}
	.st1{fill:none;stroke:#FFFFFF;stroke-width:2.5;stroke-miterlimit:10;}
	.st2{fill:none;stroke:#8DC044;stroke-width:2.5;stroke-miterlimit:10;}
	.st3{fill:none;stroke:#CDCCCC;stroke-width:2.5;stroke-miterlimit:10;}
	.st4{fill:none;stroke:#010202;stroke-width:2.5;stroke-miterlimit:10;}
	.st5{fill:none;stroke:#E6E6E6;stroke-width:2.5;stroke-miterlimit:10;}
	.st6{fill:#8DC044;}
	.st7{fill:#82A93E;}
	.st8{fill:#CDCCCC;}
</style>
<path class="st0" d="M1792.8,579.5c0-33.4-167.2-88-299.7-88c-95.6,0-240.2,27.1-240,60.5c0.3,51.5,43.6,60.5,240,60.5
	C1625.7,612.5,1792.8,612.9,1792.8,579.5z"/>
<path class="st0" d="M2086.3,649.5c0-45-298.1-118.5-534.4-118.5c-170.5,0-428.3,36.5-428,81.4c0.5,69.3,77.7,81.4,428,81.4
	C1788.2,694,2086.3,694.5,2086.3,649.5z"/>
<path class="st0" d="M686.4,526.2c0-39.8-194.2-104.7-348.1-104.7c-111.1,0-279,32.2-278.8,72c0.3,61.3,50.6,72,278.8,72
	C492.2,565.5,686.4,566,686.4,526.2z"/>
<path class="st0" d="M1650.4,209.3c0-39.8-194.2-104.7-348.1-104.7c-111.1,0-279,32.2-278.8,72c0.3,61.3,50.6,72,278.8,72
	C1456.2,248.6,1650.4,249.1,1650.4,209.3z"/>
<path class="st0" d="M1336.9,244.1c0-42-246.7-110.5-442.3-110.5c-141.1,0-354.5,34-354.2,76c0.4,64.7,64.3,76,354.2,76
	C1090.2,285.5,1336.9,286,1336.9,244.1z"/>
<ellipse class="st0" cx="1479.2" cy="875.5" rx="140.7" ry="134.8"/>
<path class="st1" d="M882,881.7c0.9,0,1.8,0,2.7-0.2c24.9-4.2,41.4-13.8,69.2,6.7c28.5,21,12.8,47.9,23.3,100.4
	c10.5,52.5-1.5,96-1.5,96H843.3c0,0,12-68.4,0-91.7c-21.4-41.6-6.5-55.2,7.3-76C871.8,884.7,879.8,881.7,882,881.7z"/>
<path class="st1" d="M927.3,889.2c0.9,0,1.8,0,2.7-0.2c24.9-4.2,41.4-13.8,69.2,6.7c28.5,21,12.8,47.9,23.3,100.4
	c10.5,52.5-1.5,96-1.5,96H888.6c0,0,12-68.4,0-91.7c-21.4-41.6-6.5-55.2,7.3-76C917.1,892.2,925.1,889.2,927.3,889.2z"/>
<path class="st1" d="M979.1,881.7c0.9,0,1.8,0,2.7-0.2c24.9-4.2,41.4-13.8,69.2,6.7c28.5,21,12.8,47.9,23.3,100.4
	c10.5,52.5-1.5,96-1.5,96H940.4c0,0,12-68.4,0-91.7c-21.4-41.6-6.5-55.2,7.3-76C968.9,884.7,976.9,881.7,979.1,881.7z"/>
<path class="st1" d="M1024.5,889.2c0.9,0,1.8,0,2.7-0.2c24.9-4.2,41.4-13.8,69.2,6.7c28.5,21,12.8,47.9,23.3,100.4
	c10.5,52.5-1.5,96-1.5,96H985.7c0,0,12-68.4,0-91.7c-21.4-41.6-6.5-55.2,7.3-76C1014.2,892.2,1022.2,889.2,1024.5,889.2z"/>
<path class="st1" d="M1082.3,881.7c0.9,0,1.8,0,2.7-0.2c24.9-4.2,41.4-13.8,69.2,6.7c28.5,21,12.8,47.9,23.3,100.4
	c10.5,52.5-1.5,96-1.5,96h-132.4c0,0,12-68.4,0-91.7c-21.4-41.6-6.5-55.2,7.3-76C1072.1,884.7,1080.1,881.7,1082.3,881.7z"/>
<path class="st1" d="M1127.7,889.2c0.9,0,1.8,0,2.7-0.2c24.9-4.2,41.4-13.8,69.2,6.7c28.5,21,12.8,47.9,23.3,100.4
	c10.5,52.5-1.5,96-1.5,96h-132.4c0,0,12-68.4,0-91.7c-21.4-41.6-6.5-55.2,7.3-76C1117.4,892.2,1125.4,889.2,1127.7,889.2z"/>
<path class="st1" d="M1179.4,881.7c0.9,0,1.8,0,2.7-0.2c24.9-4.2,41.4-13.8,69.2,6.7c28.5,21,12.8,47.9,23.3,100.4s-1.5,96-1.5,96
	h-132.4c0,0,12-68.4,0-91.7c-21.4-41.6-6.5-55.2,7.3-76C1169.2,884.7,1177.2,881.7,1179.4,881.7z"/>
<path class="st1" d="M1224.8,889.2c0.9,0,1.8,0,2.7-0.2c24.9-4.2,41.4-13.8,69.2,6.7c28.5,21,12.8,47.9,23.3,100.4s-1.5,96-1.5,96
	H1186c0,0,12-68.4,0-91.7c-21.4-41.6-6.5-55.2,7.3-76C1214.5,892.2,1222.5,889.2,1224.8,889.2z"/>
<path class="st1" d="M1282.6,881.7c0.9,0,1.8,0,2.7-0.2c24.9-4.2,41.4-13.8,69.2,6.7c28.5,21,12.8,47.9,23.3,100.4s-1.5,96-1.5,96
	h-132.4c0,0,12-68.4,0-91.7c-21.4-41.6-6.5-55.2,7.3-76C1272.4,884.7,1280.4,881.7,1282.6,881.7z"/>
<path class="st1" d="M1328,889.2c0.9,0,1.8,0,2.7-0.2c24.9-4.2,41.4-13.8,69.2,6.7c28.5,21,12.8,47.9,23.3,100.4
	c10.5,52.5-1.5,96-1.5,96h-132.4c0,0,12-68.4,0-91.7c-21.4-41.6-6.5-55.2,7.3-76C1317.7,892.2,1325.7,889.2,1328,889.2z"/>
<path class="st1" d="M1379.8,881.7c0.9,0,1.8,0,2.7-0.2c24.9-4.2,41.4-13.8,69.2,6.7c28.5,21,12.8,47.9,23.3,100.4
	c10.5,52.5-1.5,96-1.5,96H1341c0,0,12-68.4,0-91.7c-21.4-41.6-6.5-55.2,7.3-76C1369.5,884.7,1377.5,881.7,1379.8,881.7z"/>
<path class="st1" d="M1425.1,889.2c0.9,0,1.8,0,2.7-0.2c24.9-4.2,41.4-13.8,69.2,6.7c28.5,21,12.8,47.9,23.3,100.4
	c10.5,52.5-1.5,96-1.5,96h-132.4c0,0,12-68.4,0-91.7c-21.4-41.6-6.5-55.2,7.3-76C1414.8,892.2,1422.9,889.2,1425.1,889.2z"/>
<path class="st1" d="M1482.9,881.7c0.9,0,1.8,0,2.7-0.2c24.9-4.2,41.4-13.8,69.2,6.7c28.5,21,12.8,47.9,23.3,100.4
	c10.5,52.5-1.5,96-1.5,96h-132.4c0,0,12-68.4,0-91.7c-21.4-41.6-6.5-55.2,7.3-76C1472.7,884.7,1480.7,881.7,1482.9,881.7z"/>
<path class="st1" d="M1528.3,889.2c0.9,0,1.8,0,2.7-0.2c24.9-4.2,41.4-13.8,69.2,6.7c28.5,21,12.8,47.9,23.3,100.4
	c10.5,52.5-1.5,96-1.5,96h-132.4c0,0,12-68.4,0-91.7c-21.4-41.6-6.5-55.2,7.3-76C1518,892.2,1526,889.2,1528.3,889.2z"/>
<path class="st1" d="M1580.1,881.7c0.9,0,1.8,0,2.7-0.2c24.9-4.2,41.4-13.8,69.2,6.7c28.5,21,12.8,47.9,23.3,100.4s-1.5,96-1.5,96
	h-132.4c0,0,12-68.4,0-91.7c-21.4-41.6-6.5-55.2,7.3-76C1569.8,884.7,1577.8,881.7,1580.1,881.7z"/>
<path class="st1" d="M1625.4,889.2c0.9,0,1.8,0,2.7-0.2c24.9-4.2,41.4-13.8,69.2,6.7c28.5,21,12.8,47.9,23.3,100.4s-1.5,96-1.5,96
	h-132.4c0,0,12-68.4,0-91.7c-21.4-41.6-6.5-55.2,7.3-76C1615.1,892.2,1623.2,889.2,1625.4,889.2z"/>
<path class="st1" d="M1670.7,881.7c0.9,0,1.8,0,2.7-0.2c24.9-4.2,41.4-13.8,69.2,6.7c28.5,21,12.8,47.9,23.3,100.4
	c10.5,52.5-1.5,96-1.5,96H1632c0,0,12-68.4,0-91.7c-21.4-41.6-6.5-55.2,7.3-76C1660.5,884.7,1668.5,881.7,1670.7,881.7z"/>
<path class="st1" d="M1716.1,889.2c0.9,0,1.8,0,2.7-0.2c24.9-4.2,41.4-13.8,69.2,6.7c28.5,21,12.8,47.9,23.3,100.4s-1.5,96-1.5,96
	h-132.4c0,0,12-68.4,0-91.7c-21.4-41.6-6.5-55.2,7.3-76C1705.8,892.2,1713.8,889.2,1716.1,889.2z"/>
<path class="st1" d="M1767.8,881.7c0.9,0,1.8,0,2.7-0.2c24.9-4.2,41.4-13.8,69.2,6.7c28.5,21,12.8,47.9,23.3,100.4s-1.5,96-1.5,96
	h-132.4c0,0,12-68.4,0-91.7c-21.4-41.6-6.5-55.2,7.3-76C1757.6,884.7,1765.6,881.7,1767.8,881.7z"/>
<path class="st1" d="M1813.2,889.2c0.9,0,1.8,0,2.7-0.2c24.9-4.2,41.4-13.8,69.2,6.7c28.5,21,12.8,47.9,23.3,100.4
	c10.5,52.5-1.5,96-1.5,96h-132.4c0,0,12-68.4,0-91.7c-21.4-41.6-6.5-55.2,7.3-76C1802.9,892.2,1810.9,889.2,1813.2,889.2z"/>
<path class="st1" d="M1858.5,881.7c0.9,0,1.8,0,2.7-0.2c24.9-4.2,41.4-13.8,69.2,6.7c28.5,21,12.8,47.9,23.3,100.4
	c10.5,52.5-1.5,96-1.5,96h-132.4c0,0,12-68.4,0-91.7c-21.4-41.6-6.5-55.2,7.3-76C1848.3,884.7,1856.3,881.7,1858.5,881.7z"/>
<path class="st1" d="M1903.8,889.2c0.9,0,1.8,0,2.7-0.2c24.9-4.2,41.4-13.8,69.2,6.7c28.5,21,12.8,47.9,23.3,100.4s-1.5,96-1.5,96
	h-132.4c0,0,12-68.4,0-91.7c-21.4-41.6-6.5-55.2,7.3-76C1893.6,892.2,1901.6,889.2,1903.8,889.2z"/>
<g>
	<path class="st2" d="M648.3,1032c-31.8-59.9-11.6-165.6-11.6-165.6c16.8-42.9,34.9-112.2,113.8-184c42.7-38.8,66.9,7.2,120.9-61.4
		c-0.6-19.5-21.5-36.1-103.6-77.3c-62.6-31.4-169.4-7.5-236.9,13.3c-38.5,11.9-73.9,32.1-104.1,59
		c-59.5,53.1-146.9,157.6-192.7,180.1c-54.4,26.7-137.3,18.9-198.6,56.7C9.4,869-3.5,916-8.5,963.3c0,0.4,0,0,0,0.4v128.2H663
		C663,1091.9,680.2,1091.9,648.3,1032z"/>
</g>
<g>
	<path class="st3" d="M614.2,533c0,0-7.8,9.6-19.4,13.6c-11.6,4-56.7,8.9-40.2,37c16.5,28.1,45.8,20.5,56,15.2s5.2-3.2,5.2-3.2
		l-5.5-3.1c0,0,11.2-2.6,12.9-4.3s13.2-7,9-7c-7.6,0-16.3-1.2-16.3-1.2s-7.9-3.1-12.9-8c-5-5-29.7-10.1-25.7-8.9
		c14.7,4.3,18.1,6.1,24.3-2.8c7.4-10.6,16.6-18.8,16.6-18.8L614.2,533z"/>
	<path class="st3" d="M685.7,524.4c3.8,7.1,10.7,13.4,5.8,21.1c-5,7.8-23.6,6.2-23.4,9.8c0.2,3.6,10.2,9.5,15.8,8
		c5.6-1.5,8.6-2.4,8.7,0.2c0.1,2.7,3.1,7.1-0.6,8.8c-3.7,1.7-23.8,2.9-27.6,0.6c-3.8-2.3-14-12.1-13.7-15.5
		c0.2-3.5,1.7-8.6,3.7-10.1"/>
	<path class="st3" d="M743.4,491.6c-7.9,29.1-3.5,64.1-1.9,65.3c2.6,1.9,11.4-2.2,12.3,0.9c2.6,8.8,0.6,14.4-3.7,15.6
		c-8.2,2.3-16.9,0.1-18.5-1.2c-2.5-2.1-7.3-25.1-8.3-35.8c-0.7-7.9,1.9-20.5,1.9-20.5l-3.1-17.5L743.4,491.6z"/>
	<path class="st4" d="M743.7,446.5"/>
	<path class="st3" d="M782.2,427.2c-1-2.3-17.5-3-17.5-3s0.3-15-4.3-26.4c0,0-1.4-6.9-5.8-9c-3.4-20.7-18.6-22.7-18.6-22.7
		s-3,5.3-7.1,17.5c-13-2.3-22.3-1-22.3-1c-8.6-14.5-20.6-14-29.1-12.5c1.5,12.4,5.6,17.4,6.9,21.3c-8.6,7.3-4.5,29.9-4.5,29.9
		s-9-0.3-16.8,3c9,20.8,14.5,21.7,28.1,27.2c0,0-25.2,4.6-34.7,25.9c-10,22.4-30,26.6-36.7,36.4c-21.2,31.2-0.5,40.6,14,43.3
		c14.5,2.6,33-2.4,43.1-12.1c10.1-9.7,35.4-10.1,43.6-16.5c8.1-6.4,19-9.5,23.2-38.5c2.8-19.4-6.1-30.6-6.1-30.6
		c-1.1,1-8,0.1-16.2-1.4c24.5,1.8,52.1-2.3,59.2-13.3C786,436.3,783.2,429.5,782.2,427.2z"/>
	<path class="st3" d="M667.5,524.4c3.9,8.2,11.4,15.6,5.4,24.1c-6,8.5-26.9,5.7-26.8,9.8s11,11.2,17.4,9.9c6.4-1.4,9.8-2.3,9.7,0.7
		c0,3,3.1,8.2-1.1,9.9c-4.3,1.8-26.9,2-31-0.8c-4.1-2.8-15-14.3-14.6-18.2c0.5-3.9,2.4-9.6,4.7-11.1"/>
	<path class="st3" d="M727.2,491.6c-3.3,32.9-16.7,52.9-14,69c0.5,3.2,12.1,0.6,13,3.7c2.6,8.8-0.1,11.6-4.4,12.8
		c-8.2,2.3-15.3,2.3-19.2-1c-6.2-5.3-6.2-29.8-5.4-37.7c0.8-7.9-0.3-18.9-0.3-18.9l-2.6-22.7c-1.7-7.3,0-14.5,0-14.5"/>
	<ellipse class="st4" cx="752" cy="414.3" rx="1.9" ry="6.6"/>
	<ellipse class="st4" cx="725.3" cy="414.3" rx="1.9" ry="6.6"/>
	<path class="st4" d="M776.6,430.1c-8.9-1.3-14.9,0-14.9,0s1.3,2.3,5.9,3.6C772.3,435.1,776.6,430.1,776.6,430.1z"/>
	<ellipse class="st4" cx="727.2" cy="444.6" rx="10.3" ry="0.5"/>
</g>
<path class="st5" d="M871.5,621.4c0-0.1-0.1-0.1-0.2-0.1c-53.9,68.2-78.2,22.4-120.8,61.2c-78.9,71.8-97,141.1-113.8,184
	c0,0-20.3,105.7,11.6,165.6C680.2,1092,663,1092,663,1092h245.7l-0.1-5.5c0-53.7,2.1-26.5,2.2-51.1L899,919.1
	c-7.5-72.7-50.7-220.5-28.2-293.6L871.5,621.4z"/>
<g>
	<g>
		<path class="st6" d="M225.6,895c12.4-4,24.9-8,37.3-12c1.8-0.6,1-3.5-0.8-2.9c-12.4,4-24.9,8-37.3,12
			C222.9,892.7,223.7,895.6,225.6,895L225.6,895z"/>
	</g>
</g>
<g>
	<g>
		<path class="st6" d="M224.2,905.5c-3-6.7-7-18-3.5-25.2c3.5-7,15.8-5.2,22.1-7.2c11.5-3.6,20-12.9,27.9-21.6
			c1.3-1.4-0.8-3.6-2.1-2.1c-5.5,6.1-11.1,12.3-18,16.7c-3.3,2.1-6.9,3.8-10.7,4.7c-4.4,1.1-9.1,0.8-13.4,2.1
			c-15.1,4.5-9.5,23.4-4.8,34C222.3,908.8,224.9,907.2,224.2,905.5L224.2,905.5z"/>
	</g>
</g>
<g>
	<g>
		<path class="st6" d="M392.2,774.8c11.2,6.4,11.4,24.4,13.1,35.6c2.3,16,3.8,32.4,0.8,48.5c-2.5,13.4-8,26.3-17.7,36.1
			c-9.2,9.3-20.8,15.8-29.1,26c-1.2,1.5,0.9,3.6,2.1,2.1c9.5-11.7,23.4-18.5,32.9-30.2c8.8-10.8,13.6-24.3,15.5-38
			c2.3-16.4,0.3-32.9-2.2-49.2c-1.8-11.5-2.5-27-13.9-33.5C392,771.3,390.5,773.9,392.2,774.8L392.2,774.8z"/>
	</g>
</g>
<g>
	<g>
		<path class="st6" d="M497.6,833.1c-2.3-35.1-36.4-54.1-52.5-82.2c-1-1.7-3.6-0.2-2.6,1.5c15.7,27.4,49.8,46.5,52.1,80.7
			C494.7,835,497.7,835,497.6,833.1L497.6,833.1z"/>
	</g>
</g>
<g>
	<g>
		<path class="st7" d="M405.4,858.4c0,0.1,0.1,0.4,0.1,0.5c0-0.2,0,0.5,0,0.2c-0.1,0.8,0.2,1.7,1,1.8c0.7,0.2,1.7-0.2,1.8-1
			c0.1-0.8,0.1-1.5-0.1-2.3c-0.3-0.8-1-1.3-1.8-1C405.7,856.7,405.1,857.6,405.4,858.4L405.4,858.4z"/>
	</g>
</g>
<g>
	<g>
		<path class="st7" d="M411.4,850.5c0.1,1.4,0.1,2.8,0.1,4.2c-0.1,1.9,2.9,1.9,3,0c0.1-1.4,0-2.8-0.1-4.2c-0.1-0.8-0.6-1.5-1.5-1.5
			C412.1,849,411.3,849.7,411.4,850.5L411.4,850.5z"/>
	</g>
</g>
<g>
	<g>
		<path class="st7" d="M416.1,854.3c0,0.5,0,1,0,1.5c0,0.8,0.7,1.5,1.5,1.5c0.8,0,1.5-0.7,1.5-1.5c0-0.5,0-1,0-1.5
			c0-0.8-0.7-1.5-1.5-1.5C416.8,852.8,416.1,853.5,416.1,854.3L416.1,854.3z"/>
	</g>
</g>
<g>
	<g>
		<path class="st7" d="M374.6,753.4c-0.1-0.7-0.2-1.4-0.1-2.1c0.1-0.8-0.7-1.5-1.5-1.5c-0.9,0-1.4,0.7-1.5,1.5c-0.1,1,0,1.9,0.2,2.9
			c0.2,0.8,1.1,1.3,1.8,1C374.4,755,374.7,754.2,374.6,753.4L374.6,753.4z"/>
	</g>
</g>
<g>
	<g>
		<path class="st7" d="M381.6,749.1c0.1-2.1-0.1-4.1-0.7-6.1c-0.6-1.8-3.5-1.1-2.9,0.8c0.5,1.7,0.7,3.5,0.6,5.3
			C378.5,751.1,381.5,751.1,381.6,749.1L381.6,749.1z"/>
	</g>
</g>
<g>
	<g>
		<path class="st7" d="M386.4,747.9c0.5,1.4,0.7,2.8,0.6,4.3c-0.1,1.9,2.9,1.9,3,0c0.1-1.7-0.2-3.4-0.7-5.1
			C388.7,745.2,385.8,746,386.4,747.9L386.4,747.9z"/>
	</g>
</g>
<g>
	<g>
		<path class="st7" d="M425.8,646.8c0,1.3,0,2.6,0,3.8c0,1.9,3,1.9,3,0c0-1.3,0-2.6,0-3.8C428.8,644.9,425.8,644.9,425.8,646.8
			L425.8,646.8z"/>
	</g>
</g>
<g>
	<g>
		<path class="st7" d="M433,642.6c0,1.3,0.1,2.6,0.2,3.9c0.1,0.8,1.1,1.2,1.8,1c0.9-0.2,1.2-1,1-1.8c-0.1-1-0.2-2.1-0.1-3.1
			C436,640.7,433,640.7,433,642.6L433,642.6z"/>
	</g>
</g>
<g>
	<g>
		<path class="st7" d="M440,644.9c0.3,0.9,0.5,1.8,0.8,2.7c0.2,0.8,1.1,1.3,1.8,1c0.8-0.2,1.3-1.1,1-1.8c-0.3-0.9-0.5-1.8-0.8-2.7
			c-0.2-0.8-1.1-1.3-1.8-1C440.3,643.2,439.8,644.1,440,644.9L440,644.9z"/>
	</g>
</g>
<g>
	<g>
		<path class="st7" d="M692.5,680.8c-0.2-0.8-0.5-1.6-0.9-2.3c-0.4-0.7-1.3-1-2.1-0.5c-0.7,0.4-1,1.4-0.5,2.1
			c0.3,0.6,0.5,0.9,0.6,1.5c0.2,0.8,1.1,1.3,1.8,1C692.3,682.4,692.7,681.6,692.5,680.8L692.5,680.8z"/>
	</g>
</g>
<g>
	<g>
		<path class="st7" d="M697.5,677.5c0-2.2-0.1-4.4,0-6.6c0-1.9-3-1.9-3,0c0,2.2,0,4.4,0,6.6C694.5,679.4,697.5,679.4,697.5,677.5
			L697.5,677.5z"/>
	</g>
</g>
<g>
	<g>
		<path class="st7" d="M701,675.8c0,0.9,0,1.8,0,2.8c0,1.9,3,1.9,3,0c0-0.9,0-1.8,0-2.8C704,673.9,701,673.9,701,675.8L701,675.8z"
			/>
	</g>
</g>
<g>
	<g>
		<path class="st7" d="M773.4,620.8c-0.6-1.4-1.2-2.8-2.1-4c-0.5-0.7-1.3-1-2.1-0.5c-0.7,0.4-1,1.4-0.5,2.1c0.7,1,1.3,2.1,1.8,3.3
			c0.3,0.8,1,1.3,1.8,1C773,622.4,773.7,621.5,773.4,620.8L773.4,620.8z"/>
	</g>
</g>
<g>
	<g>
		<path class="st7" d="M779.8,615.7c-0.9-1.7-1.9-3.3-2.8-5c-1-1.7-3.5-0.2-2.6,1.5c0.9,1.7,1.9,3.3,2.8,5
			C778.2,618.9,780.8,617.4,779.8,615.7L779.8,615.7z"/>
	</g>
</g>
<g>
	<g>
		<path class="st7" d="M783.8,613.2c0.3,1.4,0.6,2.8,1,4.1c0.4,1.9,3.3,1.1,2.9-0.8c-0.3-1.4-0.6-2.8-1-4.1
			C786.3,610.5,783.4,611.3,783.8,613.2L783.8,613.2z"/>
	</g>
</g>
<g>
	<g>
		<path class="st7" d="M103.4,984.9c1.5-4.4,2.4-8.9,3-13.5c0.2-1.9-2.8-1.9-3,0c-0.5,4.3-1.5,8.5-2.9,12.7
			C99.9,986,102.8,986.8,103.4,984.9L103.4,984.9z"/>
	</g>
</g>
<g>
	<g>
		<path class="st7" d="M114.7,964.5c0.3,4,0.2,7.9-0.4,11.9c-0.3,1.9,2.6,2.7,2.9,0.8c0.7-4.2,0.9-8.4,0.5-12.7
			C117.6,962.6,114.6,962.6,114.7,964.5L114.7,964.5z"/>
	</g>
</g>
<g>
	<g>
		<path class="st7" d="M124,974.2c0.1,2.5-0.2,5-1,7.4c-0.6,1.9,2.3,2.6,2.9,0.8c0.8-2.7,1.2-5.4,1.1-8.2
			C126.9,972.3,123.9,972.3,124,974.2L124,974.2z"/>
	</g>
</g>
<g>
	<g>
		<path class="st7" d="M430.9,1031.7c-0.5-4.9-1.4-9.6-2.8-14.4c-0.5-1.9-3.4-1.1-2.9,0.8c1.3,4.4,2.2,9,2.7,13.6
			C428.1,1033.6,431.1,1033.6,430.9,1031.7L430.9,1031.7z"/>
	</g>
</g>
<g>
	<g>
		<path class="st7" d="M439,1022c-0.9-4.9-2.3-9.6-4.1-14.1c-0.7-1.8-3.6-1-2.9,0.8c1.8,4.6,3.2,9.3,4.1,14.1
			C436.4,1024.7,439.3,1023.9,439,1022L439,1022z"/>
	</g>
</g>
<g>
	<g>
		<path class="st7" d="M443.3,1019.2c0.4,4.7-0.2,9.2-1.8,13.6c-0.7,1.8,2.2,2.6,2.9,0.8c1.7-4.7,2.3-9.5,1.9-14.4
			C446.1,1017.3,443.1,1017.3,443.3,1019.2L443.3,1019.2z"/>
	</g>
</g>
<g>
	<g>
		<path class="st7" d="M196.4,861.1c-0.3-3-1.3-5.8-3.2-8.2c-1.2-1.5-3.8,0-2.6,1.5c1.5,2,2.5,4.2,2.8,6.7
			C193.6,863,196.6,863.1,196.4,861.1L196.4,861.1z"/>
	</g>
</g>
<g>
	<g>
		<path class="st7" d="M202.1,855.4c-0.3-1.5-0.8-3-1.4-4.5c-0.3-0.7-1-1.3-1.8-1c-0.7,0.2-1.4,1.1-1,1.8c0.6,1.5,1.1,2.9,1.4,4.5
			C199.6,858.1,202.5,857.3,202.1,855.4L202.1,855.4z"/>
	</g>
</g>
<g>
	<g>
		<path class="st7" d="M204.5,854.6c0,1.9,0,3.9,0,5.8c0,1.9,3,1.9,3,0c0-1.9,0-3.9,0-5.8C207.5,852.7,204.5,852.7,204.5,854.6
			L204.5,854.6z"/>
	</g>
</g>
<g>
	<g>
		<path class="st7" d="M241.2,1073.5c1.1-6.4-0.2-12.6-3.9-18c-1.1-1.6-3.7-0.1-2.6,1.5c3.2,4.7,4.5,10,3.6,15.7
			C238,1074.5,240.9,1075.4,241.2,1073.5L241.2,1073.5z"/>
	</g>
</g>
<g>
	<g>
		<path class="st7" d="M253.7,1065c1.2-10.4-0.5-20.4-5-29.8c-0.8-1.7-3.4-0.2-2.6,1.5c4.3,8.9,5.8,18.5,4.6,28.3
			C250.5,1066.9,253.5,1066.9,253.7,1065L253.7,1065z"/>
	</g>
</g>
<g>
	<g>
		<path class="st8" d="M791.9,759.8c6.4,73.7-6.1,148.1,4.9,221.6c3,19.8,7.8,39.4,14.9,58.1c0.7,1.8,3.6,1,2.9-0.8
			c-26.1-68.5-18.8-142.9-17.9-214.6c0.3-21.5,0-42.9-1.9-64.3C794.7,757.9,791.7,757.9,791.9,759.8L791.9,759.8z"/>
	</g>
</g>
<g>
	<g>
		<path class="st8" d="M846.8,676.8c12.3,97.9-4.8,196.8,8.4,294.6c3.5,26.3,9.4,52.3,18.3,77.3c0.6,1.8,3.5,1,2.9-0.8
			c-32.9-92.1-21.5-191-21.8-286.7c-0.1-28.2-1.3-56.4-4.8-84.4C849.5,674.9,846.5,674.9,846.8,676.8L846.8,676.8z"/>
	</g>
</g>
</svg>
